# xmcd
#
# Track frame offsets: 
#        150
#        11242
#        22592
#        40845
#        61560
#        69752
#        84615
#        90387
#        95985
#        107160
#        116695
#        128700
#        140290
#        147365
#        189195
#        199407
#
# Disc length: 2799 seconds
#
# Revision: 0
# Processed by: cddbd v1.5.1PL0 Copyright (c) Steve Scherf et al.
# Submitted via: ExactAudioCopy v0.95a5
#
DISCID=d00aed10
DTITLE=Loren Mazzacane and Suzanne Langille - Come Night
DYEAR=1991
DGENRE=blues
TTITLE0=Take Me Up
TTITLE1=Flames
TTITLE2=The Dream Comes
TTITLE3=Never the Blues
TTITLE4=The Cave
TTITLE5=In the Sunrise
TTITLE6=Leaves
TTITLE7=Almost You
TTITLE8=Sure
TTITLE9=Tell Me Where
TTITLE10=No Words
TTITLE11=Still Bound
TTITLE12=Spectres
TTITLE13=Willow
TTITLE14=Cross Town
TTITLE15=Too Late
EXTD=
EXTT0=
EXTT1=
EXTT2=
EXTT3=
EXTT4=
EXTT5=
EXTT6=
EXTT7=
EXTT8=
EXTT9=
EXTT10=
EXTT11=
EXTT12=
EXTT13=
EXTT14=
EXTT15=
PLAYORDER=
